<svg aria-hidden="true" style="position: absolute; width: 0; height: 0; overflow: hidden;" version="1.1" xmlns="http://www.w3.org/2000/svg" xmlns:xlink="http://www.w3.org/1999/xlink">
<defs>
<symbol id="icon-android" viewBox="0 0 27 32">
<path fill="#fff" style="fill: var(--color1, #fff)" d="M8.395 0.322c-0.153 0.001-0.303 0.040-0.436 0.113-0.439 0.244-0.601 0.808-0.357 1.247l0.992 1.791c-2.39 1.479-3.974 4.005-3.974 6.887v0.536c-0.459-0.528-1.134-0.862-1.888-0.862-1.381 0-2.503 1.121-2.503 2.503v7.709c0 1.381 1.122 2.503 2.503 2.503 0.754 0 1.429-0.334 1.888-0.862v1.080c0 1.456 1.191 2.647 2.647 2.647h0.672v3.429c0 1.381 1.122 2.503 2.503 2.503s2.503-1.122 2.503-2.503v-3.429h1.162v3.429c0 1.381 1.122 2.503 2.503 2.503s2.503-1.122 2.503-2.503v-3.429h0.672c1.456 0 2.647-1.191 2.647-2.647v-1.080c0.459 0.528 1.134 0.862 1.888 0.862 1.381 0 2.503-1.122 2.503-2.503v-7.709c0-1.381-1.121-2.503-2.503-2.503-0.754 0-1.429 0.333-1.888 0.862v-0.471c0-0.027 0-0.049 0-0.065 0-2.882-1.587-5.406-3.976-6.884l0.995-1.794c0.243-0.439 0.082-1.004-0.357-1.247-0.134-0.073-0.284-0.112-0.436-0.113-0.325-0.003-0.643 0.168-0.811 0.471l-1.040 1.879c-1.017-0.375-2.124-0.581-3.279-0.581-1.154 0-2.263 0.204-3.279 0.578l-1.040-1.876c-0.168-0.303-0.486-0.473-0.811-0.471z"></path>
<path fill="#a4c639" style="fill: var(--color2, #a4c639)" d="M2.732 10.687c-1.031 0-1.851 0.82-1.851 1.851v7.709c0 1.031 0.82 1.851 1.851 1.851s1.851-0.82 1.851-1.851v-7.709c0-1.031-0.82-1.851-1.851-1.851zM24.318 10.687c-1.031 0-1.851 0.82-1.851 1.851v7.709c0 1.031 0.82 1.851 1.851 1.851s1.851-0.82 1.851-1.851v-7.709c0-1.031-0.82-1.851-1.851-1.851z"></path>
<path fill="#a4c639" style="fill: var(--color2, #a4c639)" d="M10.442 19.485c-1.031 0-1.851 0.82-1.851 1.851v7.709c0 1.031 0.82 1.851 1.851 1.851s1.851-0.82 1.851-1.851v-7.709c0-1.031-0.82-1.851-1.851-1.851zM16.609 19.485c-1.031 0-1.851 0.82-1.851 1.851v7.709c0 1.031 0.82 1.851 1.851 1.851s1.851-0.82 1.851-1.851v-7.709c0-1.031-0.82-1.851-1.851-1.851z"></path>
<path fill="#a4c639" style="fill: var(--color2, #a4c639)" d="M8.401 0.974c-0.044 0.001-0.087 0.012-0.125 0.034-0.132 0.073-0.175 0.225-0.102 0.357l1.304 2.355c-2.508 1.305-4.203 3.786-4.206 6.632h16.507c-0.003-2.847-1.698-5.327-4.206-6.632l1.304-2.355c0.073-0.132 0.030-0.284-0.102-0.357-0.038-0.022-0.081-0.033-0.125-0.034-0.094-0.001-0.182 0.046-0.232 0.136l-1.321 2.381c-1.080-0.479-2.292-0.748-3.571-0.748s-2.491 0.269-3.571 0.748l-1.321-2.381c-0.023-0.042-0.056-0.077-0.097-0.101s-0.088-0.036-0.135-0.035h-0zM5.272 11.004v11.964c-0.001 0.262 0.051 0.522 0.151 0.764s0.247 0.462 0.432 0.648c0.185 0.185 0.406 0.332 0.648 0.432s0.502 0.151 0.764 0.151h12.516c0.262 0.001 0.522-0.051 0.764-0.151s0.463-0.247 0.648-0.432c0.185-0.185 0.332-0.406 0.432-0.648s0.151-0.502 0.151-0.764v-11.963l-16.507-0z"></path>
<path fill="#fff" style="fill: var(--color1, #fff)" d="M9.716 5.954c-0.377 0-0.689 0.312-0.689 0.689s0.312 0.689 0.689 0.689c0.377 0 0.689-0.312 0.689-0.689s-0.312-0.689-0.689-0.689zM17.334 5.954c-0.377 0-0.689 0.312-0.689 0.689s0.312 0.689 0.689 0.689c0.377 0 0.689-0.312 0.689-0.689s-0.312-0.689-0.689-0.689z"></path>
</symbol>
<symbol id="icon-apiary" viewBox="0 0 31 32">
<path fill="#13a049" style="fill: var(--color3, #13a049)" opacity="0.5" d="M15.713 4.69v8.901l7.723-4.46v-8.901l-7.723 4.46z"></path>
<path fill="#a2cc39" style="fill: var(--color4, #a2cc39)" opacity="0.5" d="M15.713 4.69l-7.723-4.46v8.919l7.723 4.46v-8.919z"></path>
<path fill="#000" style="fill: var(--color5, #000)" opacity="0.9" d="M23.437 0.23l-7.723 4.46-7.723-4.46-7.723 4.46 15.447 8.919 15.438-8.919-7.714-4.46z"></path>
<path fill="#000" style="fill: var(--color5, #000)" d="M15.713 13.609l-15.447-8.919v8.919l7.723 4.46v8.91l7.723 4.46 7.723-4.46v-8.91l7.714-4.46v-8.919l-15.438 8.919z"></path>
<path fill="#000" style="fill: var(--color5, #000)" d="M15.713 13.609v17.83l7.723-4.46v-8.91l7.714-4.46v-8.919l-15.438 8.919z"></path>
<path fill="#231f20" style="fill: var(--color6, #231f20)" opacity="0.05" d="M15.713 22.519v8.919l7.723-4.46-7.723-4.46z"></path>
<path fill="#231f20" style="fill: var(--color6, #231f20)" opacity="0.1" d="M15.713 31.457v-8.919l-7.723 4.46 7.723 4.46z"></path>
<path fill="#231f20" style="fill: var(--color6, #231f20)" opacity="0.05" d="M7.99 9.149l-7.723 4.46 7.723 4.46 7.723-4.46-7.723-4.46z"></path>
<path fill="#231f20" style="fill: var(--color6, #231f20)" opacity="0.05" d="M23.437 9.149l-7.723 4.46 7.723 4.46 7.714-4.46-7.714-4.46z"></path>
</symbol>

<symbol id="icon-ibm" viewBox="0 0 79 32">
<path fill="#1f70c1" style="fill: var(--color7, #1f70c1)" d="M0.33 0.418v2.151h15.302v-2.151h-15.302zM17.8 0.418v2.151h21.806c0 0-2.227-2.151-5.177-2.151h-16.628zM43.883 0.418v2.151h13.192l-0.783-2.151h-12.409zM66.533 0.418l-0.783 2.151h13.072v-2.151h-12.289zM0.33 4.602v2.151h15.302v-2.151h-15.302zM17.8 4.605v2.148h24.336c0 0-0.284-1.656-0.78-2.148h-23.556zM43.883 4.605v2.148h14.638l-0.724-2.148h-13.914zM64.967 4.605l-0.724 2.148h14.58v-2.148h-13.855zM4.728 8.786v2.154h6.627v-2.154h-6.627zM22.197 8.786v2.154h6.627v-2.154h-6.627zM35.269 8.786v2.154h6.627c0 0 0.421-1.138 0.421-2.154l-7.047 0zM48.28 8.786v2.154h11.748l-0.783-2.154-10.966 0zM63.524 8.786l-0.786 2.154h11.807v-2.154h-11.021zM4.728 12.973v2.151h6.627v-2.151h-6.627zM22.197 12.973v2.151h16.926c0 0 1.416-1.104 1.867-2.151l-18.793 0zM48.28 12.973v2.151h6.627v-1.198l0.421 1.198h12.139l0.452-1.198v1.198h6.627v-2.151h-12.44l-0.66 1.822-0.663-1.822h-12.501zM4.728 17.157v2.151h6.627v-2.151h-6.627zM22.197 17.157v2.151h18.793c-0.451-1.044-1.867-2.151-1.867-2.151h-16.926zM48.28 17.157v2.151h6.627v-2.151h-6.627zM56.111 17.157l0.802 2.151h9.102l0.762-2.151h-10.665zM67.918 17.157v2.151h6.627v-2.151h-6.627zM4.728 21.34v2.151h6.627v-2.151h-6.627zM22.197 21.34v2.151h6.627v-2.151h-6.627zM35.269 21.34v2.151h7.047c0-1.015-0.421-2.151-0.421-2.151h-6.627zM48.28 21.34v2.151h6.627v-2.151h-6.627zM57.616 21.34l0.776 2.151h6.102l0.783-2.151h-7.661zM67.918 21.34v2.151h6.627v-2.151h-6.627zM0.45 25.524v2.154h15.302v-2.154l-15.302 0zM17.8 25.524v2.154h23.556c0.496-0.493 0.78-2.154 0.78-2.154l-24.336 0zM44.003 25.524v2.154h10.905v-2.154l-10.905 0zM59.123 25.524l0.798 2.154h3.105l0.749-2.154-4.652 0zM67.918 25.524v2.154h11.024v-2.154l-11.024 0zM0.45 29.711v2.151h15.302v-2.151h-15.302zM17.8 29.711v2.148h16.628c2.95 0 5.177-2.148 5.177-2.148l-21.806 0zM44.003 29.711v2.151h10.905v-2.151h-10.905zM60.637 29.711l0.767 2.145 0.132 0.003 0.78-2.148-1.679 0zM67.918 29.711v2.151h11.024v-2.151h-11.024z"></path>
</symbol>
<symbol id="icon-airbnb" viewBox="0 0 30 32">
<path fill="#e0565b" style="fill: var(--color8, #e0565b)" d="M27.355 25.575c-0.219 1.63-1.316 3.040-2.852 3.667-0.752 0.313-1.567 0.407-2.382 0.313-0.783-0.094-1.567-0.345-2.382-0.814-1.128-0.628-2.257-1.599-3.573-3.040 2.069-2.539 3.322-4.858 3.792-6.926 0.219-0.972 0.251-1.849 0.157-2.664-0.125-0.783-0.407-1.505-0.846-2.131-0.972-1.41-2.601-2.225-4.419-2.225s-3.447 0.846-4.419 2.225c-0.439 0.627-0.721 1.348-0.846 2.131-0.125 0.815-0.094 1.724 0.157 2.664 0.47 2.068 1.755 4.419 3.792 6.957-1.285 1.442-2.445 2.414-3.573 3.041-0.815 0.47-1.598 0.721-2.382 0.815-0.808 0.090-1.625-0.017-2.382-0.313-1.536-0.627-2.632-2.038-2.852-3.667-0.094-0.783-0.031-1.567 0.282-2.444 0.094-0.314 0.251-0.626 0.407-1.003 0.22-0.501 0.47-1.034 0.721-1.567l0.032-0.062c2.162-4.67 4.482-9.434 6.895-14.072l0.094-0.188c0.251-0.47 0.501-0.971 0.752-1.441 0.251-0.502 0.533-0.972 0.877-1.38 0.658-0.752 1.536-1.16 2.507-1.16s1.849 0.407 2.507 1.16c0.345 0.408 0.627 0.878 0.878 1.38 0.251 0.47 0.501 0.971 0.752 1.441l0.094 0.188c2.382 4.67 4.701 9.433 6.864 14.103v0.031c0.251 0.502 0.47 1.066 0.721 1.567 0.157 0.376 0.313 0.689 0.407 1.003 0.251 0.815 0.345 1.599 0.22 2.413h-0zM14.85 24.101c-1.692-2.131-2.789-4.137-3.165-5.829-0.156-0.721-0.188-1.348-0.094-1.912 0.063-0.502 0.251-0.941 0.501-1.317 0.596-0.845 1.598-1.379 2.758-1.379s2.194 0.502 2.758 1.379c0.251 0.376 0.439 0.815 0.501 1.317 0.094 0.564 0.063 1.222-0.094 1.912-0.376 1.661-1.473 3.667-3.165 5.829zM28.985 22.472c-0.157-0.376-0.313-0.783-0.47-1.128-0.251-0.564-0.502-1.097-0.721-1.599l-0.031-0.031c-2.162-4.701-4.482-9.465-6.926-14.166l-0.094-0.189c-0.251-0.47-0.502-0.972-0.752-1.473-0.314-0.564-0.627-1.159-1.128-1.724-1.003-1.254-2.445-1.943-3.981-1.943-1.567 0-2.977 0.689-4.012 1.881-0.47 0.564-0.815 1.159-1.128 1.724-0.251 0.501-0.502 1.003-0.752 1.473l-0.094 0.188c-2.413 4.701-4.764 9.465-6.926 14.166l-0.031 0.063c-0.22 0.501-0.47 1.034-0.721 1.598-0.168 0.371-0.324 0.748-0.47 1.128-0.408 1.159-0.533 2.256-0.376 3.385 0.345 2.351 1.912 4.325 4.075 5.203 0.815 0.345 1.661 0.502 2.539 0.502 0.251 0 0.564-0.031 0.815-0.063 1.034-0.126 2.1-0.47 3.134-1.065 1.285-0.721 2.508-1.755 3.886-3.259 1.379 1.504 2.633 2.539 3.886 3.259 1.034 0.596 2.1 0.94 3.134 1.065 0.251 0.032 0.564 0.063 0.815 0.063 0.878 0 1.755-0.157 2.539-0.502 2.194-0.877 3.73-2.883 4.074-5.203 0.251-1.097 0.125-2.194-0.282-3.354l0 0z"></path>
</symbol>
<symbol id="icon-basecamp" viewBox="0 0 38 32">
<path fill="#b6deff" style="fill: var(--color9, #b6deff)" d="M19.23 0.418c-10.143 0-18.090 12.905-18.842 23.805 3.183 5.524 10.859 7.601 18.842 7.601s15.659-2.076 18.84-7.601c-0.752-10.899-8.698-23.804-18.84-23.804z"></path>
<path fill="#6c6" style="fill: var(--color10, #6c6)" d="M35.42 21.626c0 0-2.24-4.843-4.517-7.669-2.279-2.827-5.061-5.905-6.707-5.905s-6.241 8.139-8.35 8.139c-2.109 0-3.205-3.69-5.799-3.69s-6.716 8.897-6.716 8.897l-0.279 1.508c0 0 1.432 6.348 16.412 6.348s16.178-6.244 16.178-6.244l-0.222-1.385z"></path>
<path fill="#17ad49" style="fill: var(--color11, #17ad49)" d="M16.081 19.665c-2.327 0-3.519-2.296-4.166-3.712-0.582-1.277-0.682-3.292-2.332-3.348 0.162-0.064 0.318-0.102 0.464-0.102 2.593 0 3.689 3.69 5.799 3.69s6.706-8.139 8.35-8.139c0.31 0 0.659 0.109 1.038 0.304-0.28-0.037-0.639-0.011-0.916 0.266-0.532 0.532-5.357 11.042-8.237 11.042z"></path>
</symbol>
</defs>
</svg>
